<mxfile host="app.diagrams.net" modified="2023-09-01T12:02:09.889Z" agent="Mozilla/5.0 (Macintosh; Intel Mac OS X 10_15_7) AppleWebKit/605.1.15 (KHTML, like Gecko) Version/16.4 Safari/605.1.15" version="21.7.1" etag="pdma83owyb3A9z6LxJtO" type="github">
  <diagram name="Page-1" id="F4kQqlDEhUX1kySR89VJ">
    <mxGraphModel>
      <root>
        <mxCell id="0" />
        <mxCell id="1" parent="0" />
      </root>
    </mxGraphModel>
  </diagram>
</mxfile>
